{
  "accessors": [
    {
      "bufferView": 2,
      "componentType": 5126,
      "count": 33912,
      "max": [
        91.060340881347656,
        41.403892517089844,
        75.843254089355469
      ],
      "min": [
        -91.060340881347656,
        -41.403892517089844,
        67.401252746582031
      ],
      "type": "VEC3"
    },
    {
      "bufferView": 2,
      "byteOffset": 406944,
      "componentType": 5126,
      "count": 33912,
      "max": [
        1,
        1,
        1
      ],
      "min": [
        -1,
        -1,
        -1
      ],
      "type": "VEC3"
    },
    {
      "bufferView": 1,
      "componentType": 5126,
      "count": 33912,
      "max": [
        0.66653001308441162,
        0.61269897222518921
      ],
      "min": [
        0.17757800221443176,
        0.037742000073194504
      ],
      "type": "VEC2"
    },
    {
      "bufferView": 0,
      "componentType": 5125,
      "count": 71976,
      "max": [
        33911
      ],
      "min": [
        0
      ],
      "type": "SCALAR"
    },
    {
      "bufferView": 2,
      "byteOffset": 813888,
      "componentType": 5126,
      "count": 4150,
      "max": [
        101.35514068603516,
        47.5,
        77.400001525878906
      ],
      "min": [
        -101.35514068603516,
        -47.5,
        0
      ],
      "type": "VEC3"
    },
    {
      "bufferView": 2,
      "byteOffset": 863688,
      "componentType": 5126,
      "count": 4150,
      "max": [
        1,
        1,
        1
      ],
      "min": [
        -1,
        -1,
        -1
      ],
      "type": "VEC3"
    },
    {
      "bufferView": 3,
      "componentType": 5126,
      "count": 4150,
      "max": [
        1,
        1,
        1,
        1
      ],
      "min": [
        -1,
        -1,
        -1,
        -1
      ],
      "type": "VEC4"
    },
    {
      "bufferView": 1,
      "byteOffset": 271296,
      "componentType": 5126,
      "count": 4150,
      "max": [
        1.9911409616470337,
        0.99775397777557373
      ],
      "min": [
        0.0022390000522136688,
        0.0022390000522136688
      ],
      "type": "VEC2"
    },
    {
      "bufferView": 0,
      "byteOffset": 287904,
      "componentType": 5125,
      "count": 8676,
      "max": [
        4149
      ],
      "min": [
        0
      ],
      "type": "SCALAR"
    }
  ],
  "asset": {
    "extras": {
      "author": "Interiors3D (https://sketchfab.com/Interiors3D)",
      "license": "CC-BY-4.0 (http://creativecommons.org/licenses/by/4.0/)",
      "source": "https://sketchfab.com/3d-models/a39300-3608caf385e2434f9c943ba28c132eef",
      "title": "A39300"
    },
    "generator": "Sketchfab-8.48.0",
    "version": "2.0"
  },
  "bufferViews": [
    {
      "buffer": 0,
      "byteLength": 322608,
      "byteOffset": 0,
      "name": "floatBufferViews",
      "target": 34963
    },
    {
      "buffer": 0,
      "byteLength": 304496,
      "byteOffset": 322608,
      "byteStride": 8,
      "name": "floatBufferViews",
      "target": 34962
    },
    {
      "buffer": 0,
      "byteLength": 913488,
      "byteOffset": 627104,
      "byteStride": 12,
      "name": "floatBufferViews",
      "target": 34962
    },
    {
      "buffer": 0,
      "byteLength": 66400,
      "byteOffset": 1540592,
      "byteStride": 16,
      "name": "floatBufferViews",
      "target": 34962
    }
  ],
  "buffers": [
    {
      "byteLength": 1606992,
      "uri": "scene.bin"
    }
  ],
  "images": [
    {
      "uri": "textures/A393.wood.black_baseColor.jpeg"
    },
    {
      "uri": "textures/A393.wood.black_metallicRoughness.png"
    },
    {
      "uri": "textures/A393.wood.black_normal.png"
    }
  ],
  "materials": [
    {
      "doubleSided": true,
      "name": "A393.wood.black",
      "normalTexture": {
        "index": 2,
        "scale": 0.59999999999999998,
        "texCoord": 0
      },
      "pbrMetallicRoughness": {
        "baseColorFactor": [
          1,
          1,
          1,
          1
        ],
        "baseColorTexture": {
          "index": 0,
          "texCoord": 0
        },
        "metallicFactor": 0,
        "metallicRoughnessTexture": {
          "index": 1,
          "texCoord": 0
        },
        "roughnessFactor": 1
      }
    },
    {
      "doubleSided": true,
      "name": "Metal",
      "pbrMetallicRoughness": {
        "baseColorFactor": [
          0.113772,
          0.069434999999999969,
          0.019511999999999998,
          1
        ],
        "metallicFactor": 1,
        "roughnessFactor": 0.29999999999999999
      }
    }
  ],
  "meshes": [
    {
      "primitives": [
        {
          "attributes": {
            "NORMAL": 1,
            "POSITION": 0,
            "TEXCOORD_0": 2
          },
          "indices": 3,
          "material": 1,
          "mode": 4
        }
      ]
    },
    {
      "primitives": [
        {
          "attributes": {
            "NORMAL": 5,
            "POSITION": 4,
            "TANGENT": 6,
            "TEXCOORD_0": 7
          },
          "indices": 8,
          "material": 0,
          "mode": 4
        }
      ]
    }
  ],
  "nodes": [
    {
      "children": [
        1
      ],
      "name": "RootNode (gltf orientation matrix)",
      "rotation": [
        -0.70710678118654746,
        -0,
        -0,
        0.70710678118654757
      ]
    },
    {
      "children": [
        2
      ],
      "name": "RootNode (model correction matrix)"
    },
    {
      "children": [
        3,
        4
      ],
      "name": "W11 - A39300 - Sketchfab - mesh.black.obj.cleaner.materialmerger.gles"
    },
    {
      "mesh": 0,
      "name": ""
    },
    {
      "mesh": 1,
      "name": ""
    }
  ],
  "samplers": [
    {
      "magFilter": 9729,
      "minFilter": 9987,
      "wrapS": 10497,
      "wrapT": 10497
    }
  ],
  "scene": 0,
  "scenes": [
    {
      "name": "OSG_Scene",
      "nodes": [
        0
      ]
    }
  ],
  "textures": [
    {
      "sampler": 0,
      "source": 0
    },
    {
      "sampler": 0,
      "source": 1
    },
    {
      "sampler": 0,
      "source": 2
    }
  ]
}

